<?xml version="1.0" encoding="UTF-8"?>
<svg id="Layer_1" data-name="Layer 1" xmlns="http://www.w3.org/2000/svg" viewBox="0 0 630.7 224.96">
  <defs>
    <style>
      .cls-1 {
        fill: #fff;
      }
    </style>
  </defs>
  <path class="cls-1" d="m269.96,80.96h-48.98l-36.83-61.28C176.75,7.38,163.76.01,149.4,0h-.06c-14.34,0-27.32,7.32-34.74,19.59L0,213.9h54.61L149.4,53.19l20.46,34.04c-27.52,11.86-46.84,39.25-46.84,71.07,0,36.76,29.9,66.66,66.66,66.66,24.35,0,46.04-12.65,58.02-33.84,11.22-19.84,11.65-43.11,1.37-63.12h46.53l-25.65-47.04Zm-63.19,87c-1.69,2.99-6.76,9.96-17.08,9.96s-19.62-8.8-19.62-19.62c0-14.77,10.62-27.1,24.63-29.76l11.82,19.65c5.32,8.86,1.95,16.78.26,19.77Z"/>
  <g>
    <path class="cls-1" d="m355.64,79.64c-2.68,9.55-10.2,12.29-16.92,12.29-10.99,0-18.15-7.3-18.15-18.73,0-13.31,8.9-18.58,17.65-18.58,11.14,0,17.28,8.03,17.28,18.8v1.81h-24.95c.58,6.15,3.76,8.82,8.17,8.82s6.15-1.88,7.01-4.41h9.91Zm-24.88-10.41h14.39c-.36-4.92-2.96-7.16-6.94-7.16-3.54,0-6.51,1.95-7.45,7.16Z"/>
    <path class="cls-1" d="m358.53,73.2c0-11.28,6.51-18.58,15.91-18.58,4.12,0,7.23,1.37,9.76,4.12v-18.3h9.69v50.62h-9.11v-4.12c-2.89,3.33-6.15,4.99-10.34,4.99-9.69,0-15.91-7.3-15.91-18.73Zm25.96,0c0-6.72-3.04-10.49-8.17-10.49s-8.1,3.76-8.1,10.49,3.04,10.56,8.1,10.56,8.17-3.76,8.17-10.56Z"/>
    <path class="cls-1" d="m454.01,69.88v21.19h-9.69v-20.75c0-5.5-1.88-7.38-5.71-7.38-4.12,0-6.51,2.97-6.51,8.61v19.53h-9.69v-20.75c0-5.5-1.95-7.38-5.71-7.38-4.19,0-6.51,2.97-6.51,8.61v19.53h-9.76v-35.65h9.18v4.34c2.46-3.47,5.64-5.13,9.76-5.13,4.56,0,8.03,1.45,10.41,5.5,2.82-3.9,6.51-5.5,11.14-5.5,8.68,0,13.09,4.48,13.09,15.26Z"/>
    <path class="cls-1" d="m458.63,73.2c0-11.28,7.09-18.58,17.86-18.58s17.86,7.3,17.86,18.58-7.01,18.73-17.86,18.73-17.86-7.3-17.86-18.73Zm25.96,0c0-6.72-3.04-10.49-8.1-10.49s-8.17,3.76-8.17,10.49,3.04,10.56,8.17,10.56,8.1-3.83,8.1-10.56Z"/>
    <path class="cls-1" d="m499.19,55.41h9.18v4.34c2.46-3.47,5.86-5.13,10.2-5.13,8.75,0,13.09,4.48,13.09,15.26v21.19h-9.69v-20.39c0-5.78-2.02-7.74-6.07-7.74-4.48,0-6.94,3.04-6.94,8.75v19.38h-9.76v-35.65Z"/>
    <path class="cls-1" d="m539.13,81.81v-18.3h-4.63v-8.1h4.63v-9.98h9.69v9.98h6.87v8.1h-6.87v15.98c0,2.68.8,3.98,3.76,3.98,1.23,0,2.02-.22,3.11-.51v8.03c-1.73.51-3.98.8-5.64.8-7.81,0-10.92-4.19-10.92-9.98Z"/>
    <path class="cls-1" d="m557.67,73.2c0-11.28,7.09-18.58,17.86-18.58s17.86,7.3,17.86,18.58-7.01,18.73-17.86,18.73-17.86-7.3-17.86-18.73Zm25.96,0c0-6.72-3.04-10.49-8.1-10.49s-8.17,3.76-8.17,10.49,3.04,10.56,8.17,10.56,8.1-3.83,8.1-10.56Z"/>
    <path class="cls-1" d="m598.23,55.41h9.18v4.34c2.46-3.47,5.86-5.13,10.2-5.13,8.75,0,13.09,4.48,13.09,15.26v21.19h-9.69v-20.39c0-5.78-2.02-7.74-6.07-7.74-4.48,0-6.94,3.04-6.94,8.75v19.38h-9.76v-35.65Z"/>
    <path class="cls-1" d="m320.93,142.75c0-7.52,6.94-9.91,13.88-10.99l8.68-1.45v-1.23c0-4.12-1.95-5.86-5.93-5.86s-5.86,1.88-6.07,4.85h-9.69c.22-8.32,7.45-12.15,16.13-12.15,10.63,0,15.26,4.41,15.26,15.48v20.97h-9.18v-4.63c-2.6,3.9-6.44,5.5-10.99,5.5-7.88,0-12.08-3.76-12.08-10.49Zm22.56-3.98v-2.24l-6.29,1.01c-4.05.65-6.58,1.59-6.58,4.63,0,2.46,1.52,3.69,5.06,3.69,4.12,0,7.81-2.68,7.81-7.09Z"/>
    <path class="cls-1" d="m359.1,116.72h9.18v5.21c2.1-4.12,5.28-5.64,8.61-5.64.87,0,2.1.07,2.89.29v9.04c-1.52-.22-2.39-.29-3.62-.29-4.63,0-7.3,3.04-7.3,9.55v17.5h-9.76v-35.65Z"/>
    <path class="cls-1" d="m386.74,143.11v-18.3h-4.41v-8.1h4.41v-9.98h9.69v9.98h6.87v8.1h-6.87v15.98c0,2.68.8,3.98,3.76,3.98,1.23,0,2.02-.22,3.11-.51v8.03c-1.73.51-3.98.8-5.64.8-7.81,0-10.92-4.19-10.92-9.98Z"/>
    <path class="cls-1" d="m405.76,140.94h9.55c.58,3.62,2.82,5.13,7.01,5.13,3.83,0,6-1.08,6-3.54,0-1.88-1.37-3.04-5.13-3.83l-2.96-.72c-9.33-2.1-13.38-4.99-13.38-10.92,0-7.38,5.5-11.14,14.61-11.14,10.05,0,15.48,4.05,15.98,11.93h-9.55c-.22-3.47-2.31-4.85-6.07-4.85-3.4,0-5.35,1.01-5.35,3.4,0,1.81,1.3,2.96,4.99,3.76l3.04.65c9.26,2.1,13.45,5.06,13.45,11.06,0,7.45-6,11.35-15.91,11.35s-15.55-4.19-16.27-12.29Z"/>
    <path class="cls-1" d="m320.57,195.81c0-11.28,6.94-18.59,17.57-18.59,8.82,0,15.26,4.84,16.85,13.31h-9.91c-1.16-3.47-3.54-5.21-6.94-5.21-4.92,0-7.88,3.76-7.88,10.49s2.97,10.56,7.88,10.56c3.54,0,6.15-1.95,7.16-5.93h9.83c-1.45,8.82-7.96,14.1-16.99,14.1-10.63,0-17.57-7.3-17.57-18.73Z"/>
    <path class="cls-1" d="m357.74,195.81c0-11.28,7.09-18.59,17.86-18.59s17.86,7.3,17.86,18.59-7.01,18.73-17.86,18.73-17.86-7.3-17.86-18.73Zm25.96,0c0-6.73-3.04-10.49-8.1-10.49s-8.17,3.76-8.17,10.49,3.04,10.56,8.17,10.56,8.1-3.83,8.1-10.56Z"/>
    <path class="cls-1" d="m397.97,199.07v-21.04h9.69v20.32c0,5.86,2.02,7.81,6,7.81,4.19,0,6.65-3.04,6.65-8.82v-19.31h9.76v35.65h-9.18v-4.48c-2.39,3.54-5.71,5.21-9.98,5.21-8.61,0-12.94-4.56-12.94-15.33Z"/>
    <path class="cls-1" d="m436.58,178.02h9.18v4.34c2.46-3.47,5.86-5.13,10.2-5.13,8.75,0,13.09,4.48,13.09,15.26v21.19h-9.69v-20.39c0-5.79-2.02-7.74-6.07-7.74-4.48,0-6.94,3.04-6.94,8.75v19.38h-9.76v-35.65Z"/>
    <path class="cls-1" d="m473.23,195.81c0-11.28,6.94-18.59,17.57-18.59,8.82,0,15.26,4.84,16.85,13.31h-9.91c-1.16-3.47-3.54-5.21-6.94-5.21-4.92,0-7.88,3.76-7.88,10.49s2.96,10.56,7.88,10.56c3.54,0,6.15-1.95,7.16-5.93h9.83c-1.45,8.82-7.95,14.1-16.99,14.1-10.63,0-17.57-7.3-17.57-18.73Z"/>
    <path class="cls-1" d="m512.14,163.49h9.91v8.75h-9.91v-8.75Zm0,14.53h9.76v35.65h-9.76v-35.65Z"/>
    <path class="cls-1" d="m528.62,204.49v-41.44h9.76v39.2c0,2.53.72,3.69,3.04,3.69.58,0,1.01,0,1.59-.07v7.81c-1.16.36-2.46.58-3.76.58-7.52,0-10.63-3.33-10.63-9.76Z"/>
  </g>
</svg>